<mxfile host="Electron" agent="Mozilla/5.0 (Macintosh; Intel Mac OS X 10_15_7) AppleWebKit/537.36 (KHTML, like Gecko) draw.io/28.1.2 Chrome/138.0.7204.243 Electron/37.4.0 Safari/537.36" version="28.1.2">
  <diagram name="Page-1" id="GfobA1fFBad-dCLZYmnS">
    <mxGraphModel dx="1216" dy="788" grid="1" gridSize="10" guides="1" tooltips="1" connect="1" arrows="1" fold="1" page="1" pageScale="1" pageWidth="850" pageHeight="1100" math="0" shadow="0">
      <root>
        <mxCell id="0" />
        <mxCell id="1" parent="0" />
        <mxCell id="RORRRaf8rN8tCADKFCgz-1" value="bronze.crm_cust_info" style="swimlane;fontStyle=0;childLayout=stackLayout;horizontal=1;startSize=30;horizontalStack=0;resizeParent=1;resizeParentMax=0;resizeLast=0;collapsible=1;marginBottom=0;whiteSpace=wrap;html=1;fillColor=#e1d5e7;strokeColor=#9673a6;fontSize=15;" parent="1" vertex="1">
          <mxGeometry x="360" y="290" width="170" height="90" as="geometry" />
        </mxCell>
        <mxCell id="RORRRaf8rN8tCADKFCgz-2" value="cst_id" style="text;strokeColor=none;fillColor=none;align=left;verticalAlign=middle;spacingLeft=4;spacingRight=4;overflow=hidden;points=[[0,0.5],[1,0.5]];portConstraint=eastwest;rotatable=0;whiteSpace=wrap;html=1;fontSize=14;" parent="RORRRaf8rN8tCADKFCgz-1" vertex="1">
          <mxGeometry y="30" width="170" height="30" as="geometry" />
        </mxCell>
        <mxCell id="RORRRaf8rN8tCADKFCgz-28" value="cst_key" style="text;strokeColor=none;fillColor=none;align=left;verticalAlign=middle;spacingLeft=4;spacingRight=4;overflow=hidden;points=[[0,0.5],[1,0.5]];portConstraint=eastwest;rotatable=0;whiteSpace=wrap;html=1;fontSize=14;" parent="RORRRaf8rN8tCADKFCgz-1" vertex="1">
          <mxGeometry y="60" width="170" height="30" as="geometry" />
        </mxCell>
        <mxCell id="RORRRaf8rN8tCADKFCgz-5" value="bronze.crm_prd_info" style="swimlane;fontStyle=0;childLayout=stackLayout;horizontal=1;startSize=30;horizontalStack=0;resizeParent=1;resizeParentMax=0;resizeLast=0;collapsible=1;marginBottom=0;whiteSpace=wrap;html=1;fillColor=#e1d5e7;strokeColor=#9673a6;fontSize=15;" parent="1" vertex="1">
          <mxGeometry x="360" y="470" width="170" height="60" as="geometry" />
        </mxCell>
        <mxCell id="RORRRaf8rN8tCADKFCgz-6" value="prd_key" style="text;strokeColor=none;fillColor=none;align=left;verticalAlign=middle;spacingLeft=4;spacingRight=4;overflow=hidden;points=[[0,0.5],[1,0.5]];portConstraint=eastwest;rotatable=0;whiteSpace=wrap;html=1;fontSize=14;" parent="RORRRaf8rN8tCADKFCgz-5" vertex="1">
          <mxGeometry y="30" width="170" height="30" as="geometry" />
        </mxCell>
        <mxCell id="RORRRaf8rN8tCADKFCgz-7" value="bronze.crm_sales_details&amp;nbsp;" style="swimlane;fontStyle=0;childLayout=stackLayout;horizontal=1;startSize=30;horizontalStack=0;resizeParent=1;resizeParentMax=0;resizeLast=0;collapsible=1;marginBottom=0;whiteSpace=wrap;html=1;fillColor=#e1d5e7;strokeColor=#9673a6;fontSize=15;" parent="1" vertex="1">
          <mxGeometry x="110" y="350" width="180" height="90" as="geometry" />
        </mxCell>
        <mxCell id="RORRRaf8rN8tCADKFCgz-10" value="cust_id" style="text;strokeColor=none;fillColor=none;align=left;verticalAlign=middle;spacingLeft=4;spacingRight=4;overflow=hidden;points=[[0,0.5],[1,0.5]];portConstraint=eastwest;rotatable=0;whiteSpace=wrap;html=1;fontSize=14;" parent="RORRRaf8rN8tCADKFCgz-7" vertex="1">
          <mxGeometry y="30" width="180" height="30" as="geometry" />
        </mxCell>
        <mxCell id="RORRRaf8rN8tCADKFCgz-9" value="prd_key" style="text;strokeColor=none;fillColor=none;align=left;verticalAlign=middle;spacingLeft=4;spacingRight=4;overflow=hidden;points=[[0,0.5],[1,0.5]];portConstraint=eastwest;rotatable=0;whiteSpace=wrap;html=1;fontSize=14;" parent="RORRRaf8rN8tCADKFCgz-7" vertex="1">
          <mxGeometry y="60" width="180" height="30" as="geometry" />
        </mxCell>
        <mxCell id="RORRRaf8rN8tCADKFCgz-11" style="edgeStyle=orthogonalEdgeStyle;rounded=0;orthogonalLoop=1;jettySize=auto;html=1;exitX=0;exitY=0.5;exitDx=0;exitDy=0;" parent="1" source="RORRRaf8rN8tCADKFCgz-2" target="RORRRaf8rN8tCADKFCgz-10" edge="1">
          <mxGeometry relative="1" as="geometry" />
        </mxCell>
        <mxCell id="RORRRaf8rN8tCADKFCgz-12" style="edgeStyle=orthogonalEdgeStyle;rounded=0;orthogonalLoop=1;jettySize=auto;html=1;exitX=0;exitY=0.5;exitDx=0;exitDy=0;" parent="1" source="RORRRaf8rN8tCADKFCgz-6" target="RORRRaf8rN8tCADKFCgz-9" edge="1">
          <mxGeometry relative="1" as="geometry" />
        </mxCell>
        <mxCell id="RORRRaf8rN8tCADKFCgz-13" value="" style="rounded=1;whiteSpace=wrap;html=1;fillColor=none;" parent="1" vertex="1">
          <mxGeometry x="80" y="260" width="470" height="330" as="geometry" />
        </mxCell>
        <mxCell id="RORRRaf8rN8tCADKFCgz-35" style="rounded=0;orthogonalLoop=1;jettySize=auto;html=1;entryX=1;entryY=0.5;entryDx=0;entryDy=0;edgeStyle=orthogonalEdgeStyle;curved=1;exitX=0;exitY=0.5;exitDx=0;exitDy=0;" parent="1" source="RORRRaf8rN8tCADKFCgz-15" target="RORRRaf8rN8tCADKFCgz-6" edge="1">
          <mxGeometry relative="1" as="geometry" />
        </mxCell>
        <mxCell id="RORRRaf8rN8tCADKFCgz-14" value="bronze.erp_px_cat_g1v2" style="swimlane;fontStyle=0;childLayout=stackLayout;horizontal=1;startSize=30;horizontalStack=0;resizeParent=1;resizeParentMax=0;resizeLast=0;collapsible=1;marginBottom=0;whiteSpace=wrap;html=1;fillColor=#d5e8d4;strokeColor=#82b366;fontSize=15;" parent="1" vertex="1">
          <mxGeometry x="700" y="541" width="170" height="60" as="geometry" />
        </mxCell>
        <mxCell id="RORRRaf8rN8tCADKFCgz-15" value="id" style="text;strokeColor=none;fillColor=none;align=left;verticalAlign=middle;spacingLeft=4;spacingRight=4;overflow=hidden;points=[[0,0.5],[1,0.5]];portConstraint=eastwest;rotatable=0;whiteSpace=wrap;html=1;fontSize=14;" parent="RORRRaf8rN8tCADKFCgz-14" vertex="1">
          <mxGeometry y="30" width="170" height="30" as="geometry" />
        </mxCell>
        <mxCell id="RORRRaf8rN8tCADKFCgz-34" style="edgeStyle=orthogonalEdgeStyle;rounded=0;orthogonalLoop=1;jettySize=auto;html=1;exitX=0;exitY=0.5;exitDx=0;exitDy=0;entryX=1;entryY=0.5;entryDx=0;entryDy=0;curved=1;" parent="1" source="RORRRaf8rN8tCADKFCgz-16" target="RORRRaf8rN8tCADKFCgz-28" edge="1">
          <mxGeometry relative="1" as="geometry" />
        </mxCell>
        <mxCell id="RORRRaf8rN8tCADKFCgz-16" value="bronze.erp_loc_a101&amp;nbsp;" style="swimlane;fontStyle=0;childLayout=stackLayout;horizontal=1;startSize=30;horizontalStack=0;resizeParent=1;resizeParentMax=0;resizeLast=0;collapsible=1;marginBottom=0;whiteSpace=wrap;html=1;fillColor=#d5e8d4;strokeColor=#82b366;fontSize=15;" parent="1" vertex="1">
          <mxGeometry x="690" y="410" width="170" height="60" as="geometry" />
        </mxCell>
        <mxCell id="RORRRaf8rN8tCADKFCgz-17" value="cid" style="text;strokeColor=none;fillColor=none;align=left;verticalAlign=middle;spacingLeft=4;spacingRight=4;overflow=hidden;points=[[0,0.5],[1,0.5]];portConstraint=eastwest;rotatable=0;whiteSpace=wrap;html=1;fontSize=14;" parent="RORRRaf8rN8tCADKFCgz-16" vertex="1">
          <mxGeometry y="30" width="170" height="30" as="geometry" />
        </mxCell>
        <mxCell id="RORRRaf8rN8tCADKFCgz-18" value="bronze.erp_cust_az12" style="swimlane;fontStyle=0;childLayout=stackLayout;horizontal=1;startSize=30;horizontalStack=0;resizeParent=1;resizeParentMax=0;resizeLast=0;collapsible=1;marginBottom=0;whiteSpace=wrap;html=1;fillColor=#d5e8d4;strokeColor=#82b366;fontSize=15;" parent="1" vertex="1">
          <mxGeometry x="685" y="270" width="165" height="60" as="geometry" />
        </mxCell>
        <mxCell id="RORRRaf8rN8tCADKFCgz-19" value="cid" style="text;strokeColor=none;fillColor=none;align=left;verticalAlign=middle;spacingLeft=4;spacingRight=4;overflow=hidden;points=[[0,0.5],[1,0.5]];portConstraint=eastwest;rotatable=0;whiteSpace=wrap;html=1;fontSize=14;" parent="RORRRaf8rN8tCADKFCgz-18" vertex="1">
          <mxGeometry y="30" width="165" height="30" as="geometry" />
        </mxCell>
        <mxCell id="RORRRaf8rN8tCADKFCgz-23" value="" style="rounded=1;whiteSpace=wrap;html=1;fillColor=none;" parent="1" vertex="1">
          <mxGeometry x="650" y="230" width="240" height="410" as="geometry" />
        </mxCell>
        <mxCell id="RORRRaf8rN8tCADKFCgz-24" value="Transitional records about sales&amp;nbsp;" style="text;html=1;align=center;verticalAlign=middle;whiteSpace=wrap;rounded=0;" parent="1" vertex="1">
          <mxGeometry x="100" y="317" width="200" height="30" as="geometry" />
        </mxCell>
        <mxCell id="RORRRaf8rN8tCADKFCgz-25" value="Customer information" style="text;html=1;align=center;verticalAlign=middle;whiteSpace=wrap;rounded=0;" parent="1" vertex="1">
          <mxGeometry x="370" y="260" width="130" height="30" as="geometry" />
        </mxCell>
        <mxCell id="RORRRaf8rN8tCADKFCgz-26" value="Current and history product information" style="text;html=1;align=center;verticalAlign=middle;whiteSpace=wrap;rounded=0;" parent="1" vertex="1">
          <mxGeometry x="350" y="428" width="220" height="32" as="geometry" />
        </mxCell>
        <mxCell id="RORRRaf8rN8tCADKFCgz-32" style="rounded=0;orthogonalLoop=1;jettySize=auto;html=1;exitX=0;exitY=0.5;exitDx=0;exitDy=0;entryX=1;entryY=0.5;entryDx=0;entryDy=0;edgeStyle=orthogonalEdgeStyle;curved=1;" parent="1" source="RORRRaf8rN8tCADKFCgz-19" target="RORRRaf8rN8tCADKFCgz-28" edge="1">
          <mxGeometry relative="1" as="geometry" />
        </mxCell>
        <mxCell id="RORRRaf8rN8tCADKFCgz-36" value="CRM" style="rounded=1;whiteSpace=wrap;html=1;" parent="1" vertex="1">
          <mxGeometry x="220" y="230" width="120" height="60" as="geometry" />
        </mxCell>
        <mxCell id="RORRRaf8rN8tCADKFCgz-37" value="ERP" style="rounded=1;whiteSpace=wrap;html=1;" parent="1" vertex="1">
          <mxGeometry x="715" y="170" width="120" height="60" as="geometry" />
        </mxCell>
        <mxCell id="RORRRaf8rN8tCADKFCgz-38" value="Extra cust-info" style="text;html=1;align=center;verticalAlign=middle;whiteSpace=wrap;rounded=0;" parent="1" vertex="1">
          <mxGeometry x="690" y="230" width="170" height="30" as="geometry" />
        </mxCell>
        <mxCell id="RORRRaf8rN8tCADKFCgz-39" value="Location of the customers - country" style="text;html=1;align=center;verticalAlign=middle;whiteSpace=wrap;rounded=0;" parent="1" vertex="1">
          <mxGeometry x="665" y="370" width="220" height="30" as="geometry" />
        </mxCell>
        <mxCell id="RORRRaf8rN8tCADKFCgz-40" value="Category of the product" style="text;html=1;align=center;verticalAlign=middle;whiteSpace=wrap;rounded=0;" parent="1" vertex="1">
          <mxGeometry x="700" y="511" width="170" height="30" as="geometry" />
        </mxCell>
        <mxCell id="ztFZURWEl5VcxQhZNskL-1" value="Customer" style="text;html=1;strokeColor=#001DBC;fillColor=#0050ef;align=center;verticalAlign=middle;whiteSpace=wrap;overflow=hidden;fontColor=#ffffff;" vertex="1" parent="1">
          <mxGeometry x="360" y="380" width="170" height="20" as="geometry" />
        </mxCell>
        <mxCell id="ztFZURWEl5VcxQhZNskL-2" value="Customer" style="text;html=1;strokeColor=#A50040;fillColor=#d80073;align=center;verticalAlign=middle;whiteSpace=wrap;overflow=hidden;fontColor=#ffffff;" vertex="1" parent="1">
          <mxGeometry x="360" y="530" width="170" height="20" as="geometry" />
        </mxCell>
        <mxCell id="ztFZURWEl5VcxQhZNskL-3" value="Customer" style="text;html=1;strokeColor=#001DBC;fillColor=#0050ef;align=center;verticalAlign=middle;whiteSpace=wrap;overflow=hidden;fontColor=#ffffff;" vertex="1" parent="1">
          <mxGeometry x="685" y="330" width="165" height="20" as="geometry" />
        </mxCell>
        <mxCell id="ztFZURWEl5VcxQhZNskL-4" value="Customer" style="text;html=1;strokeColor=#001DBC;fillColor=#0050ef;align=center;verticalAlign=middle;whiteSpace=wrap;overflow=hidden;fontColor=#ffffff;" vertex="1" parent="1">
          <mxGeometry x="690" y="470" width="170" height="20" as="geometry" />
        </mxCell>
        <mxCell id="ztFZURWEl5VcxQhZNskL-5" value="Customer" style="text;html=1;strokeColor=#A50040;fillColor=#d80073;align=center;verticalAlign=middle;whiteSpace=wrap;overflow=hidden;fontColor=#ffffff;" vertex="1" parent="1">
          <mxGeometry x="700" y="600" width="170" height="20" as="geometry" />
        </mxCell>
      </root>
    </mxGraphModel>
  </diagram>
</mxfile>
